<svg version="1.1" xmlns="http://www.w3.org/2000/svg" xmlns:xlink="http://www.w3.org/1999/xlink" width="1483" height="755"><defs/><g><g transform="translate(-134,-54) scale(1,1)"><rect fill="#C0C0C0" stroke="none" x="927" y="559" width="442.8876953125" height="247" opacity="0.2"/></g><g transform="translate(-134,-54) scale(1,1)"><rect fill="#ffffff" stroke="none" x="920" y="552" width="442.8876953125" height="247"/></g><g transform="translate(-134,-54) scale(1,1)"><path fill="none" stroke="#000000" d="M 920 552 L 1362.8876953125 552 L 1362.8876953125 799 L 920 799 L 920 552 Z Z" stroke-miterlimit="10"/></g><g transform="translate(-134,-54) scale(1,1)"><path fill="none" stroke="#000000" d="M 920 577 L 1362.8876953125 577" stroke-miterlimit="10"/></g><g transform="translate(-134,-54) scale(1,1)"><path fill="none" stroke="#000000" d="M 920 587 L 1362.8876953125 587" stroke-miterlimit="10"/></g><g transform="translate(-134,-54) scale(1,1)"><g><path fill="none" stroke="none"/><text fill="#000000" stroke="none" font-family="Arial" font-size="13px" font-style="normal" font-weight="bold" text-decoration="none" x="1094.474365234375" y="571.5">DatabaseServer</text></g></g><g transform="translate(-134,-54) scale(1,1)"><g><path fill="none" stroke="none"/><text fill="#000000" stroke="none" font-family="Arial" font-size="13px" font-style="normal" font-weight="normal" text-decoration="none" x="925" y="604.5">+insertMsgRecord(usertoSend: ArrayList&lt;User&gt;, msg: Message)</text></g></g><g transform="translate(-134,-54) scale(1,1)"><g><path fill="none" stroke="none"/><text fill="#000000" stroke="none" font-family="Arial" font-size="13px" font-style="normal" font-weight="normal" text-decoration="none" x="925" y="619.5">+deleteMsgRecord(usertoDelete: ArrayList&lt;User&gt;, msg: Message)</text></g></g><g transform="translate(-134,-54) scale(1,1)"><g><path fill="none" stroke="none"/><text fill="#000000" stroke="none" font-family="Arial" font-size="13px" font-style="normal" font-weight="normal" text-decoration="none" x="925" y="634.5">+editMsg(content: String, msgId: Long)</text></g></g><g transform="translate(-134,-54) scale(1,1)"><g><path fill="none" stroke="none"/><text fill="#000000" stroke="none" font-family="Arial" font-size="13px" font-style="normal" font-weight="normal" text-decoration="none" x="925" y="649.5">+getMsgList(msgList: ArrayList&lt;Message&gt;)</text></g></g><g transform="translate(-134,-54) scale(1,1)"><g><path fill="none" stroke="none"/><text fill="#000000" stroke="none" font-family="Arial" font-size="13px" font-style="normal" font-weight="normal" text-decoration="none" x="925" y="664.5">+getAMsg(msgId: Long): Message</text></g></g><g transform="translate(-134,-54) scale(1,1)"><g><path fill="none" stroke="none"/><text fill="#000000" stroke="none" font-family="Arial" font-size="13px" font-style="normal" font-weight="normal" text-decoration="none" x="925" y="679.5">+getAllMsg(): ArrayList&lt;Message&gt;</text></g></g><g transform="translate(-134,-54) scale(1,1)"><g><path fill="none" stroke="none"/><text fill="#000000" stroke="none" font-family="Arial" font-size="13px" font-style="normal" font-weight="normal" text-decoration="none" x="925" y="694.5">+getMsgRecByReceiveId(receiveId: Long): ArrayList&lt;MessageReceive&gt;</text></g></g><g transform="translate(-134,-54) scale(1,1)"><rect fill="#C0C0C0" stroke="none" x="359" y="295" width="697.6953125" height="199" opacity="0.2"/></g><g transform="translate(-134,-54) scale(1,1)"><rect fill="#ffffff" stroke="none" x="352" y="288" width="697.6953125" height="199"/></g><g transform="translate(-134,-54) scale(1,1)"><path fill="none" stroke="#000000" d="M 352 288 L 1049.6953125 288 L 1049.6953125 487 L 352 487 L 352 288 Z Z" stroke-miterlimit="10"/></g><g transform="translate(-134,-54) scale(1,1)"><path fill="none" stroke="#000000" d="M 352 313 L 1049.6953125 313" stroke-miterlimit="10"/></g><g transform="translate(-134,-54) scale(1,1)"><path fill="none" stroke="#000000" d="M 352 336 L 1049.6953125 336" stroke-miterlimit="10"/></g><g transform="translate(-134,-54) scale(1,1)"><g><path fill="none" stroke="none"/><text fill="#000000" stroke="none" font-family="Arial" font-size="13px" font-style="normal" font-weight="bold" text-decoration="none" x="646.30224609375" y="307.5">SysMsgEditServlet</text></g></g><g transform="translate(-134,-54) scale(1,1)"><g><path fill="none" stroke="none"/><text fill="#000000" stroke="none" font-family="Arial" font-size="13px" font-style="normal" font-weight="normal" text-decoration="none" x="357" y="330.5">+dbServer: DatabaseServer</text></g></g><g transform="translate(-134,-54) scale(1,1)"><g><path fill="none" stroke="none"/><text fill="#000000" stroke="none" font-family="Arial" font-size="13px" font-style="normal" font-weight="normal" text-decoration="none" x="357" y="353.5">+doPost()</text></g></g><g transform="translate(-134,-54) scale(1,1)"><g><path fill="none" stroke="none"/><text fill="#000000" stroke="none" font-family="Arial" font-size="13px" font-style="normal" font-weight="normal" text-decoration="none" x="357" y="368.5">+doGet()</text></g></g><g transform="translate(-134,-54) scale(1,1)"><g><path fill="none" stroke="none"/><text fill="#000000" stroke="none" font-family="Arial" font-size="13px" font-style="normal" font-weight="normal" text-decoration="none" x="357" y="383.5">+releaseMsg(msg: Message, granularity: Granularity, usertoSend: ArrayList&lt;User&gt;, area: Area, character: Character)</text></g></g><g transform="translate(-134,-54) scale(1,1)"><g><path fill="none" stroke="none"/><text fill="#000000" stroke="none" font-family="Arial" font-size="13px" font-style="normal" font-weight="normal" text-decoration="none" x="357" y="398.5">+deleteMsg(msg: Message, granularity: Granularity, usertoDelete: ArrayList&lt;User&gt;, area: Area, character: Character)</text></g></g><g transform="translate(-134,-54) scale(1,1)"><g><path fill="none" stroke="none"/><text fill="#000000" stroke="none" font-family="Arial" font-size="13px" font-style="normal" font-weight="normal" text-decoration="none" x="357" y="413.5">+editMsg(msgId: Long, newContent: String)</text></g></g><g transform="translate(-134,-54) scale(1,1)"><g><path fill="none" stroke="none"/><text fill="#000000" stroke="none" font-family="Arial" font-size="13px" font-style="normal" font-weight="normal" text-decoration="none" x="357" y="428.5">+getAllMsg(): ArrayList&lt;Message&gt;</text></g></g><g transform="translate(-134,-54) scale(1,1)"><g><path fill="none" stroke="none"/><text fill="#000000" stroke="none" font-family="Arial" font-size="13px" font-style="normal" font-weight="normal" text-decoration="none" x="357" y="443.5">+getAMsg(msgId: Long): Message</text></g></g><g transform="translate(-134,-54) scale(1,1)"><g><path fill="none" stroke="none"/><text fill="#000000" stroke="none" font-family="Arial" font-size="13px" font-style="normal" font-weight="normal" text-decoration="none" x="357" y="458.5">+getAllMsgPreview(): HashMap&lt;Long,String&gt;</text></g></g><g transform="translate(-134,-54) scale(1,1)"><rect fill="#C0C0C0" stroke="none" x="367" y="591" width="207" height="120" opacity="0.2"/></g><g transform="translate(-134,-54) scale(1,1)"><rect fill="#ffffff" stroke="none" x="360" y="584" width="207" height="120"/></g><g transform="translate(-134,-54) scale(1,1)"><path fill="none" stroke="#000000" d="M 360 584 L 567 584 L 567 704 L 360 704 L 360 584 Z Z" stroke-miterlimit="10"/></g><g transform="translate(-134,-54) scale(1,1)"><path fill="none" stroke="#000000" d="M 360 609 L 567 609" stroke-miterlimit="10"/></g><g transform="translate(-134,-54) scale(1,1)"><path fill="none" stroke="#000000" d="M 360 677 L 567 677" stroke-miterlimit="10"/></g><g transform="translate(-134,-54) scale(1,1)"><g><path fill="none" stroke="none"/><text fill="#000000" stroke="none" font-family="Arial" font-size="13px" font-style="normal" font-weight="bold" text-decoration="none" x="437.12548828125" y="603.5">Message</text></g></g><g transform="translate(-134,-54) scale(1,1)"><g><path fill="none" stroke="none"/><text fill="#000000" stroke="none" font-family="Arial" font-size="13px" font-style="normal" font-weight="normal" text-decoration="none" x="365" y="626.5">+content: String</text></g></g><g transform="translate(-134,-54) scale(1,1)"><g><path fill="none" stroke="none"/><text fill="#000000" stroke="none" font-family="Arial" font-size="13px" font-style="normal" font-weight="normal" text-decoration="none" x="365" y="641.5">+title: String</text></g></g><g transform="translate(-134,-54) scale(1,1)"><g><path fill="none" stroke="none"/><text fill="#000000" stroke="none" font-family="Arial" font-size="13px" font-style="normal" font-weight="normal" text-decoration="none" x="365" y="656.5">+id: Long</text></g></g><g transform="translate(-134,-54) scale(1,1)"><g><path fill="none" stroke="none"/><text fill="#000000" stroke="none" font-family="Arial" font-size="13px" font-style="normal" font-weight="normal" text-decoration="none" x="365" y="671.5">+time: Date</text></g></g><g transform="translate(-134,-54) scale(1,1)"><path fill="none" stroke="#000000" d="M 855 488 L 951 551" stroke-miterlimit="10"/></g><g transform="translate(-134,-54) scale(1,1)"><path fill="#FFFFFF" stroke="none" d="M 940.1939378843756 548.943541502177 L 951 551 L 944.8130959491583 541.9048244510797 L 932.6069459615846 538.9295582872899"/></g><g transform="translate(-134,-54) scale(1,1)"><path fill="none" stroke="#000000" d="M 940.1939378843756 548.943541502177 L 951 551 L 944.8130959491583 541.9048244510797 L 932.6069459615846 538.9295582872899 L 940.1939378843756 548.943541502177" stroke-miterlimit="10"/></g><g transform="translate(-134,-54) scale(1,1)"><rect fill="#C0C0C0" stroke="none" x="919" y="71" width="192" height="80" opacity="0.2"/></g><g transform="translate(-134,-54) scale(1,1)"><rect fill="#ffffff" stroke="none" x="912" y="64" width="192" height="80"/></g><g transform="translate(-134,-54) scale(1,1)"><path fill="none" stroke="#000000" d="M 912 64 L 1104 64 L 1104 144 L 912 144 L 912 64 Z Z" stroke-miterlimit="10"/></g><g transform="translate(-134,-54) scale(1,1)"><path fill="none" stroke="#000000" d="M 912 89 L 1104 89" stroke-miterlimit="10"/></g><g transform="translate(-134,-54) scale(1,1)"><path fill="none" stroke="#000000" d="M 912 99 L 1104 99" stroke-miterlimit="10"/></g><g transform="translate(-134,-54) scale(1,1)"><g><path fill="none" stroke="none"/><text fill="#000000" stroke="none" font-family="Arial" font-size="13px" font-style="normal" font-weight="bold" text-decoration="none" x="975.84912109375" y="83.5">HttpServlet</text></g></g><g transform="translate(-134,-54) scale(1,1)"><path fill="none" stroke="#000000" d="M 809 287 L 963 145" stroke-miterlimit="10"/></g><g transform="translate(-134,-54) scale(1,1)"><path fill="#FFFFFF" stroke="none" d="M 953.7645501025834 164.96763544319427 L 963 145 L 942.3503003240846 152.58880117637162"/></g><g transform="translate(-134,-54) scale(1,1)"><path fill="none" stroke="#000000" d="M 953.7645501025834 164.96763544319427 L 963 145 L 942.3503003240846 152.58880117637162 L 953.7645501025834 164.96763544319427" stroke-miterlimit="10"/></g><g transform="translate(-134,-54) scale(1,1)"><rect fill="#C0C0C0" stroke="none" x="167" y="399" width="96" height="105" opacity="0.2"/></g><g transform="translate(-134,-54) scale(1,1)"><rect fill="#ffffff" stroke="none" x="160" y="392" width="96" height="105"/></g><g transform="translate(-134,-54) scale(1,1)"><path fill="none" stroke="#000000" d="M 160 392 L 256 392 L 256 497 L 160 497 L 160 392 Z Z" stroke-miterlimit="10"/></g><g transform="translate(-134,-54) scale(1,1)"><path fill="none" stroke="#000000" d="M 160 430 L 256 430" stroke-miterlimit="10"/></g><g transform="translate(-134,-54) scale(1,1)"><g><path fill="none" stroke="none"/><text fill="#000000" stroke="none" font-family="Arial" font-size="13px" font-style="normal" font-weight="normal" text-decoration="none" x="164.635986328125" y="409.5">«enumeration»</text></g></g><g transform="translate(-134,-54) scale(1,1)"><g><path fill="none" stroke="none"/><text fill="#000000" stroke="none" font-family="Arial" font-size="13px" font-style="normal" font-weight="bold" text-decoration="none" x="176.2109375" y="424.5">Granularity</text></g></g><g transform="translate(-134,-54) scale(1,1)"><g><path fill="none" stroke="none"/><text fill="#000000" stroke="none" font-family="Arial" font-size="13px" font-style="normal" font-weight="normal" text-decoration="none" x="165" y="447.5">Area</text></g></g><g transform="translate(-134,-54) scale(1,1)"><g><path fill="none" stroke="none"/><text fill="#000000" stroke="none" font-family="Arial" font-size="13px" font-style="normal" font-weight="normal" text-decoration="none" x="165" y="462.5">Character</text></g></g><g transform="translate(-134,-54) scale(1,1)"><g><path fill="none" stroke="none"/><text fill="#000000" stroke="none" font-family="Arial" font-size="13px" font-style="normal" font-weight="normal" text-decoration="none" x="165" y="477.5">Id</text></g></g><g transform="translate(-134,-54) scale(1,1)"><g><path fill="none" stroke="none"/><text fill="#000000" stroke="none" font-family="Arial" font-size="13px" font-style="normal" font-weight="normal" text-decoration="none" x="165" y="492.5">All</text></g></g><g transform="translate(-134,-54) scale(1,1)"><path fill="none" stroke="#000000" d="M 351 427 L 257 438" stroke-miterlimit="10" stroke-dasharray="3"/></g><g transform="translate(-134,-54) scale(1,1)"><path fill="none" stroke="#000000" d="M 266.6045331851475 432.63782298917675 L 257 438 L 267.5830622716247 440.9997988190733" stroke-miterlimit="10"/></g><g transform="translate(-134,-54) scale(1,1)"><rect fill="#C0C0C0" stroke="none" x="167" y="551" width="119" height="191" opacity="0.2"/></g><g transform="translate(-134,-54) scale(1,1)"><rect fill="#ffffff" stroke="none" x="160" y="544" width="119" height="191"/></g><g transform="translate(-134,-54) scale(1,1)"><path fill="none" stroke="#000000" d="M 160 544 L 279 544 L 279 735 L 160 735 L 160 544 Z Z" stroke-miterlimit="10"/></g><g transform="translate(-134,-54) scale(1,1)"><path fill="none" stroke="#000000" d="M 160 569 L 279 569" stroke-miterlimit="10"/></g><g transform="translate(-134,-54) scale(1,1)"><path fill="none" stroke="#000000" d="M 160 667 L 279 667" stroke-miterlimit="10"/></g><g transform="translate(-134,-54) scale(1,1)"><g><path fill="none" stroke="none"/><text fill="#000000" stroke="none" font-family="Arial" font-size="13px" font-style="normal" font-weight="bold" text-decoration="none" x="205.7763671875" y="563.5">User</text></g></g><g transform="translate(-134,-54) scale(1,1)"><g><path fill="none" stroke="none"/><text fill="#000000" stroke="none" font-family="Arial" font-size="13px" font-style="normal" font-weight="normal" text-decoration="none" x="165" y="586.5">+password: String</text></g></g><g transform="translate(-134,-54) scale(1,1)"><g><path fill="none" stroke="none"/><text fill="#000000" stroke="none" font-family="Arial" font-size="13px" font-style="normal" font-weight="normal" text-decoration="none" x="165" y="601.5">+id: Long</text></g></g><g transform="translate(-134,-54) scale(1,1)"><g><path fill="none" stroke="none"/><text fill="#000000" stroke="none" font-family="Arial" font-size="13px" font-style="normal" font-weight="normal" text-decoration="none" x="165" y="616.5">+email: String</text></g></g><g transform="translate(-134,-54) scale(1,1)"><g><path fill="none" stroke="none"/><text fill="#000000" stroke="none" font-family="Arial" font-size="13px" font-style="normal" font-weight="normal" text-decoration="none" x="165" y="631.5">+phone: String</text></g></g><g transform="translate(-134,-54) scale(1,1)"><g><path fill="none" stroke="none"/><text fill="#000000" stroke="none" font-family="Arial" font-size="13px" font-style="normal" font-weight="normal" text-decoration="none" x="165" y="646.5">+username: String</text></g></g><g transform="translate(-134,-54) scale(1,1)"><g><path fill="none" stroke="none"/><text fill="#000000" stroke="none" font-family="Arial" font-size="13px" font-style="normal" font-weight="normal" text-decoration="none" x="165" y="661.5">+type: Long</text></g></g><g transform="translate(-134,-54) scale(1,1)"><path fill="none" stroke="#000000" d="M 507 488 L 280 607" stroke-miterlimit="10" stroke-dasharray="3"/></g><g transform="translate(-134,-54) scale(1,1)"><path fill="none" stroke="#000000" d="M 287.04639219018077 598.5532043293235 L 280 607 L 290.9553381986093 606.0097652025443" stroke-miterlimit="10"/></g><g transform="translate(-134,-54) scale(1,1)"><path fill="none" stroke="#000000" d="M 607 488 L 519 583" stroke-miterlimit="10" stroke-dasharray="3"/></g><g transform="translate(-134,-54) scale(1,1)"><path fill="none" stroke="#000000" d="M 522.817989402182 572.6838497042344 L 519 583 L 528.9943460266568 578.4051063669057" stroke-miterlimit="10"/></g><g transform="translate(-134,-54) scale(1,1)"><rect fill="#C0C0C0" stroke="none" x="151" y="239" width="127" height="87" opacity="0.2"/></g><g transform="translate(-134,-54) scale(1,1)"><rect fill="#ffffff" stroke="none" x="144" y="232" width="127" height="87"/></g><g transform="translate(-134,-54) scale(1,1)"><path fill="none" stroke="#000000" d="M 144 232 L 271 232 L 271 319 L 144 319 L 144 232 Z Z" stroke-miterlimit="10"/></g><g transform="translate(-134,-54) scale(1,1)"><path fill="none" stroke="#000000" d="M 144 257 L 271 257" stroke-miterlimit="10"/></g><g transform="translate(-134,-54) scale(1,1)"><path fill="none" stroke="#000000" d="M 144 295 L 271 295" stroke-miterlimit="10"/></g><g transform="translate(-134,-54) scale(1,1)"><g><path fill="none" stroke="none"/><text fill="#000000" stroke="none" font-family="Arial" font-size="13px" font-style="normal" font-weight="bold" text-decoration="none" x="193.77001953125" y="251.5">Area</text></g></g><g transform="translate(-134,-54) scale(1,1)"><g><path fill="none" stroke="none"/><text fill="#000000" stroke="none" font-family="Arial" font-size="13px" font-style="normal" font-weight="normal" text-decoration="none" x="149" y="274.5">+name: String</text></g></g><g transform="translate(-134,-54) scale(1,1)"><g><path fill="none" stroke="none"/><text fill="#000000" stroke="none" font-family="Arial" font-size="13px" font-style="normal" font-weight="normal" text-decoration="none" x="149" y="289.5">+id: Long</text></g></g><g transform="translate(-134,-54) scale(1,1)"><path fill="none" stroke="#000000" d="M 351 308 L 272 290" stroke-miterlimit="10" stroke-dasharray="3"/></g><g transform="translate(-134,-54) scale(1,1)"><path fill="none" stroke="#000000" d="M 282.843887948615 288.15335597423825 L 272 290 L 280.9735612159465 296.36201218983905" stroke-miterlimit="10"/></g><g transform="translate(-134,-54) scale(1,1)"><rect fill="#C0C0C0" stroke="none" x="159" y="103" width="119" height="90" opacity="0.2"/></g><g transform="translate(-134,-54) scale(1,1)"><rect fill="#ffffff" stroke="none" x="152" y="96" width="119" height="90"/></g><g transform="translate(-134,-54) scale(1,1)"><path fill="none" stroke="#000000" d="M 152 96 L 271 96 L 271 186 L 152 186 L 152 96 Z Z" stroke-miterlimit="10"/></g><g transform="translate(-134,-54) scale(1,1)"><path fill="none" stroke="#000000" d="M 152 134 L 271 134" stroke-miterlimit="10"/></g><g transform="translate(-134,-54) scale(1,1)"><g><path fill="none" stroke="none"/><text fill="#000000" stroke="none" font-family="Arial" font-size="13px" font-style="normal" font-weight="normal" text-decoration="none" x="168.135986328125" y="113.5">«enumeration»</text></g></g><g transform="translate(-134,-54) scale(1,1)"><g><path fill="none" stroke="none"/><text fill="#000000" stroke="none" font-family="Arial" font-size="13px" font-style="normal" font-weight="bold" text-decoration="none" x="182.9609375" y="128.5">Character</text></g></g><g transform="translate(-134,-54) scale(1,1)"><g><path fill="none" stroke="none"/><text fill="#000000" stroke="none" font-family="Arial" font-size="13px" font-style="normal" font-weight="normal" text-decoration="none" x="157" y="151.5">Teacher</text></g></g><g transform="translate(-134,-54) scale(1,1)"><g><path fill="none" stroke="none"/><text fill="#000000" stroke="none" font-family="Arial" font-size="13px" font-style="normal" font-weight="normal" text-decoration="none" x="157" y="166.5">Student</text></g></g><g transform="translate(-134,-54) scale(1,1)"><g><path fill="none" stroke="none"/><text fill="#000000" stroke="none" font-family="Arial" font-size="13px" font-style="normal" font-weight="normal" text-decoration="none" x="157" y="181.5">Enterprise</text></g></g><g transform="translate(-134,-54) scale(1,1)"><path fill="none" stroke="#000000" d="M 501 287 L 272 172" stroke-miterlimit="10" stroke-dasharray="3"/></g><g transform="translate(-134,-54) scale(1,1)"><path fill="none" stroke="#000000" d="M 282.97094871846195 172.79892691585536 L 272 172 L 279.1927055950005 180.32255887474807" stroke-miterlimit="10"/></g><g transform="translate(-134,-54) scale(1,1)"><rect fill="#C0C0C0" stroke="none" x="1327" y="303" width="223" height="127" opacity="0.2"/></g><g transform="translate(-134,-54) scale(1,1)"><rect fill="#ffffff" stroke="none" x="1320" y="296" width="223" height="127"/></g><g transform="translate(-134,-54) scale(1,1)"><path fill="none" stroke="#000000" d="M 1320 296 L 1543 296 L 1543 423 L 1320 423 L 1320 296 Z Z" stroke-miterlimit="10"/></g><g transform="translate(-134,-54) scale(1,1)"><path fill="none" stroke="#000000" d="M 1320 321 L 1543 321" stroke-miterlimit="10"/></g><g transform="translate(-134,-54) scale(1,1)"><path fill="none" stroke="#000000" d="M 1320 344 L 1543 344" stroke-miterlimit="10"/></g><g transform="translate(-134,-54) scale(1,1)"><g><path fill="none" stroke="none"/><text fill="#000000" stroke="none" font-family="Arial" font-size="13px" font-style="normal" font-weight="bold" text-decoration="none" x="1385.266845703125" y="315.5">UserMsgServlet</text></g></g><g transform="translate(-134,-54) scale(1,1)"><g><path fill="none" stroke="none"/><text fill="#000000" stroke="none" font-family="Arial" font-size="13px" font-style="normal" font-weight="normal" text-decoration="none" x="1325" y="338.5">+dbServer: DatabaseServer</text></g></g><g transform="translate(-134,-54) scale(1,1)"><g><path fill="none" stroke="none"/><text fill="#000000" stroke="none" font-family="Arial" font-size="13px" font-style="normal" font-weight="normal" text-decoration="none" x="1325" y="361.5">+doGet()</text></g></g><g transform="translate(-134,-54) scale(1,1)"><g><path fill="none" stroke="none"/><text fill="#000000" stroke="none" font-family="Arial" font-size="13px" font-style="normal" font-weight="normal" text-decoration="none" x="1325" y="376.5">+doPost()</text></g></g><g transform="translate(-134,-54) scale(1,1)"><g><path fill="none" stroke="none"/><text fill="#000000" stroke="none" font-family="Arial" font-size="13px" font-style="normal" font-weight="normal" text-decoration="none" x="1325" y="391.5">+getUserMsg()</text></g></g><g transform="translate(-134,-54) scale(1,1)"><rect fill="#C0C0C0" stroke="none" x="1455" y="567" width="159" height="112" opacity="0.2"/></g><g transform="translate(-134,-54) scale(1,1)"><rect fill="#ffffff" stroke="none" x="1448" y="560" width="159" height="112"/></g><g transform="translate(-134,-54) scale(1,1)"><path fill="none" stroke="#000000" d="M 1448 560 L 1607 560 L 1607 672 L 1448 672 L 1448 560 Z Z" stroke-miterlimit="10"/></g><g transform="translate(-134,-54) scale(1,1)"><path fill="none" stroke="#000000" d="M 1448 585 L 1607 585" stroke-miterlimit="10"/></g><g transform="translate(-134,-54) scale(1,1)"><path fill="none" stroke="#000000" d="M 1448 653 L 1607 653" stroke-miterlimit="10"/></g><g transform="translate(-134,-54) scale(1,1)"><g><path fill="none" stroke="none"/><text fill="#000000" stroke="none" font-family="Arial" font-size="13px" font-style="normal" font-weight="bold" text-decoration="none" x="1477.642333984375" y="579.5">MessageReceive</text></g></g><g transform="translate(-134,-54) scale(1,1)"><g><path fill="none" stroke="none"/><text fill="#000000" stroke="none" font-family="Arial" font-size="13px" font-style="normal" font-weight="normal" text-decoration="none" x="1453" y="602.5">+receiveId: Long</text></g></g><g transform="translate(-134,-54) scale(1,1)"><g><path fill="none" stroke="none"/><text fill="#000000" stroke="none" font-family="Arial" font-size="13px" font-style="normal" font-weight="normal" text-decoration="none" x="1453" y="617.5">+messageId: Long</text></g></g><g transform="translate(-134,-54) scale(1,1)"><g><path fill="none" stroke="none"/><text fill="#000000" stroke="none" font-family="Arial" font-size="13px" font-style="normal" font-weight="normal" text-decoration="none" x="1453" y="632.5">+state: Long</text></g></g><g transform="translate(-134,-54) scale(1,1)"><g><path fill="none" stroke="none"/><text fill="#000000" stroke="none" font-family="Arial" font-size="13px" font-style="normal" font-weight="normal" text-decoration="none" x="1453" y="647.5">+id: String</text></g></g><g transform="translate(-134,-54) scale(1,1)"><path fill="none" stroke="#000000" d="M 1364 641 L 1447 628" stroke-miterlimit="10" stroke-dasharray="3"/></g><g transform="translate(-134,-54) scale(1,1)"><path fill="none" stroke="#000000" d="M 1437.6111128832358 633.7313871539673 L 1447 628 L 1436.3083515297653 625.4137569741168" stroke-miterlimit="10"/></g><g transform="translate(-134,-54) scale(1,1)"><path fill="none" stroke="#000000" d="M 1371 424 L 1255 551" stroke-miterlimit="10"/></g><g transform="translate(-134,-54) scale(1,1)"><path fill="#FFFFFF" stroke="none" d="M 1258.7456432561892 540.6573622031242 L 1255 551 L 1264.9619190678843 546.3352204248299 L 1269.836958544599 534.7560884899649"/></g><g transform="translate(-134,-54) scale(1,1)"><path fill="none" stroke="#000000" d="M 1258.7456432561892 540.6573622031242 L 1255 551 L 1264.9619190678843 546.3352204248299 L 1269.836958544599 534.7560884899649 L 1258.7456432561892 540.6573622031242" stroke-miterlimit="10"/></g><g transform="translate(-134,-54) scale(1,1)"><path fill="none" stroke="#000000" d="M 1455 424 L 1506 559" stroke-miterlimit="10" stroke-dasharray="3"/></g><g transform="translate(-134,-54) scale(1,1)"><path fill="none" stroke="#000000" d="M 1498.4706185370658 550.9807472426902 L 1506 559 L 1506.3463913141616 548.0054553046762" stroke-miterlimit="10"/></g><g transform="translate(-134,-54) scale(1,1)"><path fill="none" stroke="#000000" d="M 1325 295 L 1076 145" stroke-miterlimit="10"/></g><g transform="translate(-134,-54) scale(1,1)"><path fill="#FFFFFF" stroke="none" d="M 1097.7546365059384 148.2765516163326 L 1076 145 L 1089.065979128781 162.699722862414"/></g><g transform="translate(-134,-54) scale(1,1)"><path fill="none" stroke="#000000" d="M 1097.7546365059384 148.2765516163326 L 1076 145 L 1089.065979128781 162.699722862414 L 1097.7546365059384 148.2765516163326" stroke-miterlimit="10"/></g></g></svg>