<svg version="1.1" xmlns="http://www.w3.org/2000/svg" xmlns:xlink="http://www.w3.org/1999/xlink" width="995" height="683"><defs/><g><g transform="translate(-46,-78) scale(1,1)"><rect fill="#C0C0C0" stroke="none" x="663" y="511" width="375" height="247" opacity="0.2"/></g><g transform="translate(-46,-78) scale(1,1)"><rect fill="#ffffff" stroke="none" x="656" y="504" width="375" height="247"/></g><g transform="translate(-46,-78) scale(1,1)"><path fill="none" stroke="#000000" d="M 656 504 L 1031 504 L 1031 751 L 656 751 L 656 504 Z Z" stroke-miterlimit="10"/></g><g transform="translate(-46,-78) scale(1,1)"><path fill="none" stroke="#000000" d="M 656 529 L 1031 529" stroke-miterlimit="10"/></g><g transform="translate(-46,-78) scale(1,1)"><path fill="none" stroke="#000000" d="M 656 539 L 1031 539" stroke-miterlimit="10"/></g><g transform="translate(-46,-78) scale(1,1)"><g><path fill="none" stroke="none"/><text fill="#000000" stroke="none" font-family="Arial" font-size="13px" font-style="normal" font-weight="bold" text-decoration="none" x="796.530517578125" y="523.5">DatabaseServer</text></g></g><g transform="translate(-46,-78) scale(1,1)"><rect fill="#C0C0C0" stroke="none" x="271" y="311" width="500.435546875" height="151" opacity="0.2"/></g><g transform="translate(-46,-78) scale(1,1)"><rect fill="#ffffff" stroke="none" x="264" y="304" width="500.435546875" height="151"/></g><g transform="translate(-46,-78) scale(1,1)"><path fill="none" stroke="#000000" d="M 264 304 L 764.435546875 304 L 764.435546875 455 L 264 455 L 264 304 Z Z" stroke-miterlimit="10"/></g><g transform="translate(-46,-78) scale(1,1)"><path fill="none" stroke="#000000" d="M 264 329 L 764.435546875 329" stroke-miterlimit="10"/></g><g transform="translate(-46,-78) scale(1,1)"><path fill="none" stroke="#000000" d="M 264 352 L 764.435546875 352" stroke-miterlimit="10"/></g><g transform="translate(-46,-78) scale(1,1)"><g><path fill="none" stroke="none"/><text fill="#000000" stroke="none" font-family="Arial" font-size="13px" font-style="normal" font-weight="bold" text-decoration="none" x="470.872802734375" y="323.5">SysMsgServlet</text></g></g><g transform="translate(-46,-78) scale(1,1)"><g><path fill="none" stroke="none"/><text fill="#000000" stroke="none" font-family="Arial" font-size="13px" font-style="normal" font-weight="normal" text-decoration="none" x="269" y="346.5">+dbServer: DatabaseServer</text></g></g><g transform="translate(-46,-78) scale(1,1)"><g><path fill="none" stroke="none"/><text fill="#000000" stroke="none" font-family="Arial" font-size="13px" font-style="normal" font-weight="normal" text-decoration="none" x="269" y="369.5">+doPost()</text></g></g><g transform="translate(-46,-78) scale(1,1)"><g><path fill="none" stroke="none"/><text fill="#000000" stroke="none" font-family="Arial" font-size="13px" font-style="normal" font-weight="normal" text-decoration="none" x="269" y="384.5">+doGet()</text></g></g><g transform="translate(-46,-78) scale(1,1)"><g><path fill="none" stroke="none"/><text fill="#000000" stroke="none" font-family="Arial" font-size="13px" font-style="normal" font-weight="normal" text-decoration="none" x="269" y="399.5">+releaseMsg(msg: Message, granularity: Granularity, userIdtoSend: ArrayList&lt;User&gt;)</text></g></g><g transform="translate(-46,-78) scale(1,1)"><rect fill="#C0C0C0" stroke="none" x="263" y="551" width="207" height="120" opacity="0.2"/></g><g transform="translate(-46,-78) scale(1,1)"><rect fill="#ffffff" stroke="none" x="256" y="544" width="207" height="120"/></g><g transform="translate(-46,-78) scale(1,1)"><path fill="none" stroke="#000000" d="M 256 544 L 463 544 L 463 664 L 256 664 L 256 544 Z Z" stroke-miterlimit="10"/></g><g transform="translate(-46,-78) scale(1,1)"><path fill="none" stroke="#000000" d="M 256 569 L 463 569" stroke-miterlimit="10"/></g><g transform="translate(-46,-78) scale(1,1)"><path fill="none" stroke="#000000" d="M 256 637 L 463 637" stroke-miterlimit="10"/></g><g transform="translate(-46,-78) scale(1,1)"><g><path fill="none" stroke="none"/><text fill="#000000" stroke="none" font-family="Arial" font-size="13px" font-style="normal" font-weight="bold" text-decoration="none" x="333.12548828125" y="563.5">Message</text></g></g><g transform="translate(-46,-78) scale(1,1)"><g><path fill="none" stroke="none"/><text fill="#000000" stroke="none" font-family="Arial" font-size="13px" font-style="normal" font-weight="normal" text-decoration="none" x="261" y="586.5">+content: String</text></g></g><g transform="translate(-46,-78) scale(1,1)"><g><path fill="none" stroke="none"/><text fill="#000000" stroke="none" font-family="Arial" font-size="13px" font-style="normal" font-weight="normal" text-decoration="none" x="261" y="601.5">+title: String</text></g></g><g transform="translate(-46,-78) scale(1,1)"><g><path fill="none" stroke="none"/><text fill="#000000" stroke="none" font-family="Arial" font-size="13px" font-style="normal" font-weight="normal" text-decoration="none" x="261" y="616.5">+id: Long</text></g></g><g transform="translate(-46,-78) scale(1,1)"><g><path fill="none" stroke="none"/><text fill="#000000" stroke="none" font-family="Arial" font-size="13px" font-style="normal" font-weight="normal" text-decoration="none" x="261" y="631.5">+time: Date</text></g></g><g transform="translate(-46,-78) scale(1,1)"><path fill="none" stroke="#000000" d="M 616 456 L 679 503" stroke-miterlimit="10"/></g><g transform="translate(-46,-78) scale(1,1)"><path fill="#FFFFFF" stroke="none" d="M 668.3372374377058 500.2971321637683 L 679 503 L 673.3715044616702 493.54907211036925 L 661.3664692989341 489.84482630237943"/></g><g transform="translate(-46,-78) scale(1,1)"><path fill="none" stroke="#000000" d="M 668.3372374377058 500.2971321637683 L 679 503 L 673.3715044616702 493.54907211036925 L 661.3664692989341 489.84482630237943 L 668.3372374377058 500.2971321637683" stroke-miterlimit="10"/></g><g transform="translate(-46,-78) scale(1,1)"><rect fill="#C0C0C0" stroke="none" x="783" y="95" width="192" height="80" opacity="0.2"/></g><g transform="translate(-46,-78) scale(1,1)"><rect fill="#ffffff" stroke="none" x="776" y="88" width="192" height="80"/></g><g transform="translate(-46,-78) scale(1,1)"><path fill="none" stroke="#000000" d="M 776 88 L 968 88 L 968 168 L 776 168 L 776 88 Z Z" stroke-miterlimit="10"/></g><g transform="translate(-46,-78) scale(1,1)"><path fill="none" stroke="#000000" d="M 776 113 L 968 113" stroke-miterlimit="10"/></g><g transform="translate(-46,-78) scale(1,1)"><path fill="none" stroke="#000000" d="M 776 123 L 968 123" stroke-miterlimit="10"/></g><g transform="translate(-46,-78) scale(1,1)"><g><path fill="none" stroke="none"/><text fill="#000000" stroke="none" font-family="Arial" font-size="13px" font-style="normal" font-weight="bold" text-decoration="none" x="839.84912109375" y="107.5">HttpServlet</text></g></g><g transform="translate(-46,-78) scale(1,1)"><path fill="none" stroke="#000000" d="M 622 303 L 814 169" stroke-miterlimit="10"/></g><g transform="translate(-46,-78) scale(1,1)"><path fill="#FFFFFF" stroke="none" d="M 802.1508698031894 187.53639969301025 L 814 169 L 792.5141857649611 173.7286136083847"/></g><g transform="translate(-46,-78) scale(1,1)"><path fill="none" stroke="#000000" d="M 802.1508698031894 187.53639969301025 L 814 169 L 792.5141857649611 173.7286136083847 L 802.1508698031894 187.53639969301025" stroke-miterlimit="10"/></g><g transform="translate(-46,-78) scale(1,1)"><rect fill="#C0C0C0" stroke="none" x="63" y="359" width="96" height="104" opacity="0.2"/></g><g transform="translate(-46,-78) scale(1,1)"><rect fill="#ffffff" stroke="none" x="56" y="352" width="96" height="104"/></g><g transform="translate(-46,-78) scale(1,1)"><path fill="none" stroke="#000000" d="M 56 352 L 152 352 L 152 456 L 56 456 L 56 352 Z Z" stroke-miterlimit="10"/></g><g transform="translate(-46,-78) scale(1,1)"><path fill="none" stroke="#000000" d="M 56 390 L 152 390" stroke-miterlimit="10"/></g><g transform="translate(-46,-78) scale(1,1)"><g><path fill="none" stroke="none"/><text fill="#000000" stroke="none" font-family="Arial" font-size="13px" font-style="normal" font-weight="normal" text-decoration="none" x="60.635986328125" y="369.5">«enumeration»</text></g></g><g transform="translate(-46,-78) scale(1,1)"><g><path fill="none" stroke="none"/><text fill="#000000" stroke="none" font-family="Arial" font-size="13px" font-style="normal" font-weight="bold" text-decoration="none" x="72.2109375" y="384.5">Granularity</text></g></g><g transform="translate(-46,-78) scale(1,1)"><g><path fill="none" stroke="none"/><text fill="#000000" stroke="none" font-family="Arial" font-size="13px" font-style="normal" font-weight="normal" text-decoration="none" x="61" y="407.5">Area</text></g></g><g transform="translate(-46,-78) scale(1,1)"><g><path fill="none" stroke="none"/><text fill="#000000" stroke="none" font-family="Arial" font-size="13px" font-style="normal" font-weight="normal" text-decoration="none" x="61" y="422.5">Character</text></g></g><g transform="translate(-46,-78) scale(1,1)"><g><path fill="none" stroke="none"/><text fill="#000000" stroke="none" font-family="Arial" font-size="13px" font-style="normal" font-weight="normal" text-decoration="none" x="61" y="437.5">Id</text></g></g><g transform="translate(-46,-78) scale(1,1)"><path fill="none" stroke="#000000" d="M 263 394 L 153 401" stroke-miterlimit="10" stroke-dasharray="3"/></g><g transform="translate(-46,-78) scale(1,1)"><path fill="none" stroke="#000000" d="M 162.87482218175998 396.153569676698 L 153 401 L 163.40949747388876 404.55560998157887" stroke-miterlimit="10"/></g><g transform="translate(-46,-78) scale(1,1)"><rect fill="#C0C0C0" stroke="none" x="63" y="511" width="119" height="191" opacity="0.2"/></g><g transform="translate(-46,-78) scale(1,1)"><rect fill="#ffffff" stroke="none" x="56" y="504" width="119" height="191"/></g><g transform="translate(-46,-78) scale(1,1)"><path fill="none" stroke="#000000" d="M 56 504 L 175 504 L 175 695 L 56 695 L 56 504 Z Z" stroke-miterlimit="10"/></g><g transform="translate(-46,-78) scale(1,1)"><path fill="none" stroke="#000000" d="M 56 529 L 175 529" stroke-miterlimit="10"/></g><g transform="translate(-46,-78) scale(1,1)"><path fill="none" stroke="#000000" d="M 56 627 L 175 627" stroke-miterlimit="10"/></g><g transform="translate(-46,-78) scale(1,1)"><g><path fill="none" stroke="none"/><text fill="#000000" stroke="none" font-family="Arial" font-size="13px" font-style="normal" font-weight="bold" text-decoration="none" x="101.7763671875" y="523.5">User</text></g></g><g transform="translate(-46,-78) scale(1,1)"><g><path fill="none" stroke="none"/><text fill="#000000" stroke="none" font-family="Arial" font-size="13px" font-style="normal" font-weight="normal" text-decoration="none" x="61" y="546.5">+password: String</text></g></g><g transform="translate(-46,-78) scale(1,1)"><g><path fill="none" stroke="none"/><text fill="#000000" stroke="none" font-family="Arial" font-size="13px" font-style="normal" font-weight="normal" text-decoration="none" x="61" y="561.5">+id: Long</text></g></g><g transform="translate(-46,-78) scale(1,1)"><g><path fill="none" stroke="none"/><text fill="#000000" stroke="none" font-family="Arial" font-size="13px" font-style="normal" font-weight="normal" text-decoration="none" x="61" y="576.5">+email: String</text></g></g><g transform="translate(-46,-78) scale(1,1)"><g><path fill="none" stroke="none"/><text fill="#000000" stroke="none" font-family="Arial" font-size="13px" font-style="normal" font-weight="normal" text-decoration="none" x="61" y="591.5">+phone: String</text></g></g><g transform="translate(-46,-78) scale(1,1)"><g><path fill="none" stroke="none"/><text fill="#000000" stroke="none" font-family="Arial" font-size="13px" font-style="normal" font-weight="normal" text-decoration="none" x="61" y="606.5">+username: String</text></g></g><g transform="translate(-46,-78) scale(1,1)"><g><path fill="none" stroke="none"/><text fill="#000000" stroke="none" font-family="Arial" font-size="13px" font-style="normal" font-weight="normal" text-decoration="none" x="61" y="621.5">+type: Long</text></g></g><g transform="translate(-46,-78) scale(1,1)"><path fill="none" stroke="#000000" d="M 374 456 L 176 565" stroke-miterlimit="10" stroke-dasharray="3"/></g><g transform="translate(-46,-78) scale(1,1)"><path fill="none" stroke="#000000" d="M 182.87272277071594 556.4113050050148 L 176 565 L 186.93287334888538 563.7866244038914" stroke-miterlimit="10"/></g><g transform="translate(-46,-78) scale(1,1)"><path fill="none" stroke="#000000" d="M 461 456 L 401 543" stroke-miterlimit="10" stroke-dasharray="3"/></g><g transform="translate(-46,-78) scale(1,1)"><path fill="none" stroke="#000000" d="M 403.3043565965006 532.2440741599728 L 401 543 L 410.23501427508035 537.0238380762347" stroke-miterlimit="10"/></g></g></svg>