<svg version="1.1" xmlns="http://www.w3.org/2000/svg" xmlns:xlink="http://www.w3.org/1999/xlink" width="1739" height="997"><defs/><g><g transform="translate(-502,-62) scale(1,1)"><rect fill="#C0C0C0" stroke="none" x="519" y="439" width="259.3515625" height="160" opacity="0.2"/></g><g transform="translate(-502,-62) scale(1,1)"><rect fill="#ffffff" stroke="none" x="512" y="432" width="259.3515625" height="160"/></g><g transform="translate(-502,-62) scale(1,1)"><path fill="none" stroke="#000000" d="M 512 432 L 771.3515625 432 L 771.3515625 592 L 512 592 L 512 432 Z Z" stroke-miterlimit="10"/></g><g transform="translate(-502,-62) scale(1,1)"><path fill="none" stroke="#000000" d="M 512 457 L 771.3515625 457" stroke-miterlimit="10"/></g><g transform="translate(-502,-62) scale(1,1)"><path fill="none" stroke="#000000" d="M 512 480 L 771.3515625 480" stroke-miterlimit="10"/></g><g transform="translate(-502,-62) scale(1,1)"><g><path fill="none" stroke="none"/><text fill="#000000" stroke="none" font-family="Arial" font-size="13px" font-style="normal" font-weight="bold" text-decoration="none" x="592.541748046875" y="451.5">AngleMsgServlet</text></g></g><g transform="translate(-502,-62) scale(1,1)"><g><path fill="none" stroke="none"/><text fill="#000000" stroke="none" font-family="Arial" font-size="13px" font-style="normal" font-weight="normal" text-decoration="none" x="517" y="474.5">+dbServer: DatabaseServer</text></g></g><g transform="translate(-502,-62) scale(1,1)"><g><path fill="none" stroke="none"/><text fill="#000000" stroke="none" font-family="Arial" font-size="13px" font-style="normal" font-weight="normal" text-decoration="none" x="517" y="497.5">+recMsg(Communication communication)</text></g></g><g transform="translate(-502,-62) scale(1,1)"><g><path fill="none" stroke="none"/><text fill="#000000" stroke="none" font-family="Arial" font-size="13px" font-style="normal" font-weight="normal" text-decoration="none" x="517" y="512.5">+doPost()</text></g></g><g transform="translate(-502,-62) scale(1,1)"><g><path fill="none" stroke="none"/><text fill="#000000" stroke="none" font-family="Arial" font-size="13px" font-style="normal" font-weight="normal" text-decoration="none" x="517" y="527.5">+doGet()</text></g></g><g transform="translate(-502,-62) scale(1,1)"><g><path fill="none" stroke="none"/><text fill="#000000" stroke="none" font-family="Arial" font-size="13px" font-style="normal" font-weight="normal" text-decoration="none" x="517" y="542.5">+sendMsg(Communication communication)</text></g></g><g transform="translate(-502,-62) scale(1,1)"><rect fill="#C0C0C0" stroke="none" x="887" y="615" width="437.14306640625" height="256" opacity="0.2"/></g><g transform="translate(-502,-62) scale(1,1)"><rect fill="#ffffff" stroke="none" x="880" y="608" width="437.14306640625" height="256"/></g><g transform="translate(-502,-62) scale(1,1)"><path fill="none" stroke="#000000" d="M 880 608 L 1317.14306640625 608 L 1317.14306640625 864 L 880 864 L 880 608 Z Z" stroke-miterlimit="10"/></g><g transform="translate(-502,-62) scale(1,1)"><path fill="none" stroke="#000000" d="M 880 633 L 1317.14306640625 633" stroke-miterlimit="10"/></g><g transform="translate(-502,-62) scale(1,1)"><path fill="none" stroke="#000000" d="M 880 643 L 1317.14306640625 643" stroke-miterlimit="10"/></g><g transform="translate(-502,-62) scale(1,1)"><g><path fill="none" stroke="none"/><text fill="#000000" stroke="none" font-family="Arial" font-size="13px" font-style="normal" font-weight="bold" text-decoration="none" x="1051.60205078125" y="627.5">DatabaseServer</text></g></g><g transform="translate(-502,-62) scale(1,1)"><g><path fill="none" stroke="none"/><text fill="#000000" stroke="none" font-family="Arial" font-size="13px" font-style="normal" font-weight="normal" text-decoration="none" x="885" y="660.5">+getAllStu(): ArrayList&lt;Student&gt;</text></g></g><g transform="translate(-502,-62) scale(1,1)"><g><path fill="none" stroke="none"/><text fill="#000000" stroke="none" font-family="Arial" font-size="13px" font-style="normal" font-weight="normal" text-decoration="none" x="885" y="675.5">+getAllTea(): ArrayList&lt;Teacher&gt;</text></g></g><g transform="translate(-502,-62) scale(1,1)"><g><path fill="none" stroke="none"/><text fill="#000000" stroke="none" font-family="Arial" font-size="13px" font-style="normal" font-weight="normal" text-decoration="none" x="885" y="690.5">+insertGuardianAngleRecord(allGuardianAngleRecord: ArrayList&lt;Guard&gt;)</text></g></g><g transform="translate(-502,-62) scale(1,1)"><g><path fill="none" stroke="none"/><text fill="#000000" stroke="none" font-family="Arial" font-size="13px" font-style="normal" font-weight="normal" text-decoration="none" x="885" y="705.5">+storeMsg(Msg msg)</text></g></g><g transform="translate(-502,-62) scale(1,1)"><rect fill="#C0C0C0" stroke="none" x="543" y="791" width="205.95703125" height="265" opacity="0.2"/></g><g transform="translate(-502,-62) scale(1,1)"><rect fill="#ffffff" stroke="none" x="536" y="784" width="205.95703125" height="265"/></g><g transform="translate(-502,-62) scale(1,1)"><path fill="none" stroke="#000000" d="M 536 784 L 741.95703125 784 L 741.95703125 1049 L 536 1049 L 536 784 Z Z" stroke-miterlimit="10"/></g><g transform="translate(-502,-62) scale(1,1)"><path fill="none" stroke="#000000" d="M 536 809 L 741.95703125 809" stroke-miterlimit="10"/></g><g transform="translate(-502,-62) scale(1,1)"><path fill="none" stroke="#000000" d="M 536 892 L 741.95703125 892" stroke-miterlimit="10"/></g><g transform="translate(-502,-62) scale(1,1)"><g><path fill="none" stroke="none"/><text fill="#000000" stroke="none" font-family="Arial" font-size="13px" font-style="normal" font-weight="bold" text-decoration="none" x="593.8212890625" y="803.5">Communication</text></g></g><g transform="translate(-502,-62) scale(1,1)"><g><path fill="none" stroke="none"/><text fill="#000000" stroke="none" font-family="Arial" font-size="13px" font-style="normal" font-weight="normal" text-decoration="none" x="541" y="826.5">+content: String</text></g></g><g transform="translate(-502,-62) scale(1,1)"><g><path fill="none" stroke="none"/><text fill="#000000" stroke="none" font-family="Arial" font-size="13px" font-style="normal" font-weight="normal" text-decoration="none" x="541" y="841.5">+id: Long</text></g></g><g transform="translate(-502,-62) scale(1,1)"><g><path fill="none" stroke="none"/><text fill="#000000" stroke="none" font-family="Arial" font-size="13px" font-style="normal" font-weight="normal" text-decoration="none" x="541" y="856.5">+time: Date</text></g></g><g transform="translate(-502,-62) scale(1,1)"><g><path fill="none" stroke="none"/><text fill="#000000" stroke="none" font-family="Arial" font-size="13px" font-style="normal" font-weight="normal" text-decoration="none" x="541" y="871.5">+sendId: Long</text></g></g><g transform="translate(-502,-62) scale(1,1)"><g><path fill="none" stroke="none"/><text fill="#000000" stroke="none" font-family="Arial" font-size="13px" font-style="normal" font-weight="normal" text-decoration="none" x="541" y="886.5">+guardId: Long</text></g></g><g transform="translate(-502,-62) scale(1,1)"><g><path fill="none" stroke="none"/><text fill="#000000" stroke="none" font-family="Arial" font-size="13px" font-style="normal" font-weight="normal" text-decoration="none" x="541" y="909.5">+getContent()</text></g></g><g transform="translate(-502,-62) scale(1,1)"><g><path fill="none" stroke="none"/><text fill="#000000" stroke="none" font-family="Arial" font-size="13px" font-style="normal" font-weight="normal" text-decoration="none" x="541" y="924.5">+getId()</text></g></g><g transform="translate(-502,-62) scale(1,1)"><g><path fill="none" stroke="none"/><text fill="#000000" stroke="none" font-family="Arial" font-size="13px" font-style="normal" font-weight="normal" text-decoration="none" x="541" y="939.5">+getTime()</text></g></g><g transform="translate(-502,-62) scale(1,1)"><g><path fill="none" stroke="none"/><text fill="#000000" stroke="none" font-family="Arial" font-size="13px" font-style="normal" font-weight="normal" text-decoration="none" x="541" y="954.5">+getSendId()</text></g></g><g transform="translate(-502,-62) scale(1,1)"><g><path fill="none" stroke="none"/><text fill="#000000" stroke="none" font-family="Arial" font-size="13px" font-style="normal" font-weight="normal" text-decoration="none" x="541" y="969.5">+getGuardId()</text></g></g><g transform="translate(-502,-62) scale(1,1)"><g><path fill="none" stroke="none"/><text fill="#000000" stroke="none" font-family="Arial" font-size="13px" font-style="normal" font-weight="normal" text-decoration="none" x="541" y="984.5">+setContent(String content)</text></g></g><g transform="translate(-502,-62) scale(1,1)"><g><path fill="none" stroke="none"/><text fill="#000000" stroke="none" font-family="Arial" font-size="13px" font-style="normal" font-weight="normal" text-decoration="none" x="541" y="999.5">+setId(Long id)</text></g></g><g transform="translate(-502,-62) scale(1,1)"><g><path fill="none" stroke="none"/><text fill="#000000" stroke="none" font-family="Arial" font-size="13px" font-style="normal" font-weight="normal" text-decoration="none" x="541" y="1014.5">+setTime(Date time)</text></g></g><g transform="translate(-502,-62) scale(1,1)"><g><path fill="none" stroke="none"/><text fill="#000000" stroke="none" font-family="Arial" font-size="13px" font-style="normal" font-weight="normal" text-decoration="none" x="541" y="1029.5">+setSendId(Long sendId)</text></g></g><g transform="translate(-502,-62) scale(1,1)"><g><path fill="none" stroke="none"/><text fill="#000000" stroke="none" font-family="Arial" font-size="13px" font-style="normal" font-weight="normal" text-decoration="none" x="541" y="1044.5">+setGuardId(Long guardId)</text></g></g><g transform="translate(-502,-62) scale(1,1)"><path fill="none" stroke="#000000" d="M 879 822 L 743 875" stroke-miterlimit="10" stroke-dasharray="3"/></g><g transform="translate(-502,-62) scale(1,1)"><path fill="none" stroke="#000000" d="M 750.9405377261295 867.3876507817945 L 743 875 L 753.997551825367 875.2320643194605" stroke-miterlimit="10"/></g><g transform="translate(-502,-62) scale(1,1)"><path fill="none" stroke="#000000" d="M 640 593 L 639 783" stroke-miterlimit="10" stroke-dasharray="3"/></g><g transform="translate(-502,-62) scale(1,1)"><path fill="none" stroke="#000000" d="M 634.844027567939 772.815310846965 L 639 783 L 643.2629464752534 772.8596209464772" stroke-miterlimit="10"/></g><g transform="translate(-502,-62) scale(1,1)"><rect fill="#C0C0C0" stroke="none" x="1335" y="295" width="610.56103515625" height="159" opacity="0.2"/></g><g transform="translate(-502,-62) scale(1,1)"><rect fill="#ffffff" stroke="none" x="1328" y="288" width="610.56103515625" height="159"/></g><g transform="translate(-502,-62) scale(1,1)"><path fill="none" stroke="#000000" d="M 1328 288 L 1938.56103515625 288 L 1938.56103515625 447 L 1328 447 L 1328 288 Z Z" stroke-miterlimit="10"/></g><g transform="translate(-502,-62) scale(1,1)"><path fill="none" stroke="#000000" d="M 1328 313 L 1938.56103515625 313" stroke-miterlimit="10"/></g><g transform="translate(-502,-62) scale(1,1)"><path fill="none" stroke="#000000" d="M 1328 336 L 1938.56103515625 336" stroke-miterlimit="10"/></g><g transform="translate(-502,-62) scale(1,1)"><g><path fill="none" stroke="none"/><text fill="#000000" stroke="none" font-family="Arial" font-size="13px" font-style="normal" font-weight="bold" text-decoration="none" x="1537.173828125" y="307.5">GuardianAngleDistributionServlet</text></g></g><g transform="translate(-502,-62) scale(1,1)"><g><path fill="none" stroke="none"/><text fill="#000000" stroke="none" font-family="Arial" font-size="13px" font-style="normal" font-weight="normal" text-decoration="none" x="1333" y="330.5">+dbServer: DatabaseServer</text></g></g><g transform="translate(-502,-62) scale(1,1)"><g><path fill="none" stroke="none"/><text fill="#000000" stroke="none" font-family="Arial" font-size="13px" font-style="normal" font-weight="normal" text-decoration="none" x="1333" y="353.5">+angleDistribution()</text></g></g><g transform="translate(-502,-62) scale(1,1)"><g><path fill="none" stroke="none"/><text fill="#000000" stroke="none" font-family="Arial" font-size="13px" font-style="normal" font-weight="normal" text-decoration="none" x="1333" y="368.5">+getAllStu(): ArrayList&lt;Student&gt;</text></g></g><g transform="translate(-502,-62) scale(1,1)"><g><path fill="none" stroke="none"/><text fill="#000000" stroke="none" font-family="Arial" font-size="13px" font-style="normal" font-weight="normal" text-decoration="none" x="1333" y="383.5">+getAllTea(): ArrayList&lt;Teacher&gt;</text></g></g><g transform="translate(-502,-62) scale(1,1)"><g><path fill="none" stroke="none"/><text fill="#000000" stroke="none" font-family="Arial" font-size="13px" font-style="normal" font-weight="normal" text-decoration="none" x="1333" y="398.5">+areaPartition(allStudent: ArrayList&lt;Student&gt;, allTeacher: ArrayList&lt;Teacher&gt;): ArrayList&lt;AreaPartition&gt;</text></g></g><g transform="translate(-502,-62) scale(1,1)"><g><path fill="none" stroke="none"/><text fill="#000000" stroke="none" font-family="Arial" font-size="13px" font-style="normal" font-weight="normal" text-decoration="none" x="1333" y="413.5">+distributeAngle(allPartition: ArrayList&lt;AreaPartition&gt;)</text></g></g><g transform="translate(-502,-62) scale(1,1)"><rect fill="#C0C0C0" stroke="none" x="1967" y="671" width="271" height="175" opacity="0.2"/></g><g transform="translate(-502,-62) scale(1,1)"><rect fill="#ffffff" stroke="none" x="1960" y="664" width="271" height="175"/></g><g transform="translate(-502,-62) scale(1,1)"><path fill="none" stroke="#000000" d="M 1960 664 L 2231 664 L 2231 839 L 1960 839 L 1960 664 Z Z" stroke-miterlimit="10"/></g><g transform="translate(-502,-62) scale(1,1)"><path fill="none" stroke="#000000" d="M 1960 689 L 2231 689" stroke-miterlimit="10"/></g><g transform="translate(-502,-62) scale(1,1)"><path fill="none" stroke="#000000" d="M 1960 727 L 2231 727" stroke-miterlimit="10"/></g><g transform="translate(-502,-62) scale(1,1)"><g><path fill="none" stroke="none"/><text fill="#000000" stroke="none" font-family="Arial" font-size="13px" font-style="normal" font-weight="bold" text-decoration="none" x="2057.925048828125" y="683.5">AreaPartition</text></g></g><g transform="translate(-502,-62) scale(1,1)"><g><path fill="none" stroke="none"/><text fill="#000000" stroke="none" font-family="Arial" font-size="13px" font-style="normal" font-weight="normal" text-decoration="none" x="1965" y="706.5">+studentList: ArrayList&lt;Student&gt;</text></g></g><g transform="translate(-502,-62) scale(1,1)"><g><path fill="none" stroke="none"/><text fill="#000000" stroke="none" font-family="Arial" font-size="13px" font-style="normal" font-weight="normal" text-decoration="none" x="1965" y="721.5">+teacherList: ArrayList&lt;Teacher&gt;</text></g></g><g transform="translate(-502,-62) scale(1,1)"><g><path fill="none" stroke="none"/><text fill="#000000" stroke="none" font-family="Arial" font-size="13px" font-style="normal" font-weight="normal" text-decoration="none" x="1965" y="744.5">+Operation1()</text></g></g><g transform="translate(-502,-62) scale(1,1)"><rect fill="#C0C0C0" stroke="none" x="1631" y="583" width="192" height="177" opacity="0.2"/></g><g transform="translate(-502,-62) scale(1,1)"><rect fill="#ffffff" stroke="none" x="1624" y="576" width="192" height="177"/></g><g transform="translate(-502,-62) scale(1,1)"><path fill="none" stroke="#000000" d="M 1624 576 L 1816 576 L 1816 753 L 1624 753 L 1624 576 Z Z" stroke-miterlimit="10"/></g><g transform="translate(-502,-62) scale(1,1)"><path fill="none" stroke="#000000" d="M 1624 601 L 1816 601" stroke-miterlimit="10"/></g><g transform="translate(-502,-62) scale(1,1)"><path fill="none" stroke="#000000" d="M 1624 744 L 1816 744" stroke-miterlimit="10"/></g><g transform="translate(-502,-62) scale(1,1)"><g><path fill="none" stroke="none"/><text fill="#000000" stroke="none" font-family="Arial" font-size="13px" font-style="normal" font-weight="bold" text-decoration="none" x="1697.5927734375" y="595.5">Student</text></g></g><g transform="translate(-502,-62) scale(1,1)"><g><path fill="none" stroke="none"/><text fill="#000000" stroke="none" font-family="Arial" font-size="13px" font-style="normal" font-weight="normal" text-decoration="none" x="1629" y="618.5">+name: String</text></g></g><g transform="translate(-502,-62) scale(1,1)"><g><path fill="none" stroke="none"/><text fill="#000000" stroke="none" font-family="Arial" font-size="13px" font-style="normal" font-weight="normal" text-decoration="none" x="1629" y="633.5">+areaId: Long</text></g></g><g transform="translate(-502,-62) scale(1,1)"><g><path fill="none" stroke="none"/><text fill="#000000" stroke="none" font-family="Arial" font-size="13px" font-style="normal" font-weight="normal" text-decoration="none" x="1629" y="648.5">+id: Long</text></g></g><g transform="translate(-502,-62) scale(1,1)"><g><path fill="none" stroke="none"/><text fill="#000000" stroke="none" font-family="Arial" font-size="13px" font-style="normal" font-weight="normal" text-decoration="none" x="1629" y="663.5">+number: String</text></g></g><g transform="translate(-502,-62) scale(1,1)"><g><path fill="none" stroke="none"/><text fill="#000000" stroke="none" font-family="Arial" font-size="13px" font-style="normal" font-weight="normal" text-decoration="none" x="1629" y="678.5">+userId: Long</text></g></g><g transform="translate(-502,-62) scale(1,1)"><g><path fill="none" stroke="none"/><text fill="#000000" stroke="none" font-family="Arial" font-size="13px" font-style="normal" font-weight="normal" text-decoration="none" x="1629" y="693.5">+school: String</text></g></g><g transform="translate(-502,-62) scale(1,1)"><g><path fill="none" stroke="none"/><text fill="#000000" stroke="none" font-family="Arial" font-size="13px" font-style="normal" font-weight="normal" text-decoration="none" x="1629" y="708.5">+major: String</text></g></g><g transform="translate(-502,-62) scale(1,1)"><g><path fill="none" stroke="none"/><text fill="#000000" stroke="none" font-family="Arial" font-size="13px" font-style="normal" font-weight="normal" text-decoration="none" x="1629" y="723.5">+grade: String</text></g></g><g transform="translate(-502,-62) scale(1,1)"><g><path fill="none" stroke="none"/><text fill="#000000" stroke="none" font-family="Arial" font-size="13px" font-style="normal" font-weight="normal" text-decoration="none" x="1629" y="738.5">+sex: String</text></g></g><g transform="translate(-502,-62) scale(1,1)"><rect fill="#C0C0C0" stroke="none" x="1415" y="799" width="191" height="117" opacity="0.2"/></g><g transform="translate(-502,-62) scale(1,1)"><rect fill="#ffffff" stroke="none" x="1408" y="792" width="191" height="117"/></g><g transform="translate(-502,-62) scale(1,1)"><path fill="none" stroke="#000000" d="M 1408 792 L 1599 792 L 1599 909 L 1408 909 L 1408 792 Z Z" stroke-miterlimit="10"/></g><g transform="translate(-502,-62) scale(1,1)"><path fill="none" stroke="#000000" d="M 1408 817 L 1599 817" stroke-miterlimit="10"/></g><g transform="translate(-502,-62) scale(1,1)"><path fill="none" stroke="#000000" d="M 1408 900 L 1599 900" stroke-miterlimit="10"/></g><g transform="translate(-502,-62) scale(1,1)"><g><path fill="none" stroke="none"/><text fill="#000000" stroke="none" font-family="Arial" font-size="13px" font-style="normal" font-weight="bold" text-decoration="none" x="1480.37548828125" y="811.5">Teacher</text></g></g><g transform="translate(-502,-62) scale(1,1)"><g><path fill="none" stroke="none"/><text fill="#000000" stroke="none" font-family="Arial" font-size="13px" font-style="normal" font-weight="normal" text-decoration="none" x="1413" y="834.5">+name: String</text></g></g><g transform="translate(-502,-62) scale(1,1)"><g><path fill="none" stroke="none"/><text fill="#000000" stroke="none" font-family="Arial" font-size="13px" font-style="normal" font-weight="normal" text-decoration="none" x="1413" y="849.5">+areaId: Long</text></g></g><g transform="translate(-502,-62) scale(1,1)"><g><path fill="none" stroke="none"/><text fill="#000000" stroke="none" font-family="Arial" font-size="13px" font-style="normal" font-weight="normal" text-decoration="none" x="1413" y="864.5">+id: Long</text></g></g><g transform="translate(-502,-62) scale(1,1)"><g><path fill="none" stroke="none"/><text fill="#000000" stroke="none" font-family="Arial" font-size="13px" font-style="normal" font-weight="normal" text-decoration="none" x="1413" y="879.5">+number: String</text></g></g><g transform="translate(-502,-62) scale(1,1)"><g><path fill="none" stroke="none"/><text fill="#000000" stroke="none" font-family="Arial" font-size="13px" font-style="normal" font-weight="normal" text-decoration="none" x="1413" y="894.5">+userId: Long</text></g></g><g transform="translate(-502,-62) scale(1,1)"><path fill="none" stroke="#000000" d="M 1959 719 L 1817 687" stroke-miterlimit="10"/></g><g transform="translate(-502,-62) scale(1,1)"><path fill="#FFFFFF" stroke="none" d="M 1827.8394733050352 685.1276169009973 L 1817 687 L 1825.9886398647648 693.340690292197 L 1838.4617950415063 691.836460854424"/></g><g transform="translate(-502,-62) scale(1,1)"><path fill="none" stroke="#000000" d="M 1827.8394733050352 685.1276169009973 L 1817 687 L 1825.9886398647648 693.340690292197 L 1838.4617950415063 691.836460854424 L 1827.8394733050352 685.1276169009973" stroke-miterlimit="10"/></g><g transform="translate(-502,-62) scale(1,1)"><path fill="none" stroke="#000000" d="M 1959 774 L 1600 834" stroke-miterlimit="10"/></g><g transform="translate(-502,-62) scale(1,1)"><path fill="#FFFFFF" stroke="none" d="M 1609.3297292510977 828.1728092444803 L 1600 834 L 1610.717560918581 836.47666872159 L 1621.6990305166587 830.3734210835668"/></g><g transform="translate(-502,-62) scale(1,1)"><path fill="none" stroke="#000000" d="M 1609.3297292510977 828.1728092444803 L 1600 834 L 1610.717560918581 836.47666872159 L 1621.6990305166587 830.3734210835668 L 1609.3297292510977 828.1728092444803" stroke-miterlimit="10"/></g><g transform="translate(-502,-62) scale(1,1)"><path fill="none" stroke="#000000" d="M 1611 448 L 1519 791" stroke-miterlimit="10" stroke-dasharray="3"/></g><g transform="translate(-502,-62) scale(1,1)"><path fill="none" stroke="#000000" d="M 1517.5669833209238 780.0937420167369 L 1519 791 L 1525.698593166007 782.2748152113365" stroke-miterlimit="10"/></g><g transform="translate(-502,-62) scale(1,1)"><path fill="none" stroke="#000000" d="M 1657 448 L 1694 575" stroke-miterlimit="10" stroke-dasharray="3"/></g><g transform="translate(-502,-62) scale(1,1)"><path fill="none" stroke="#000000" d="M 1687.115908050252 566.420415043406 L 1694 575 L 1695.1988946025951 564.0655291974477" stroke-miterlimit="10"/></g><g transform="translate(-502,-62) scale(1,1)"><path fill="none" stroke="#000000" d="M 1730 448 L 1989 663" stroke-miterlimit="10" stroke-dasharray="3"/></g><g transform="translate(-502,-62) scale(1,1)"><path fill="none" stroke="#000000" d="M 1978.4917451500423 659.7478345662712 L 1989 663 L 1983.8691699688886 653.2699135054283" stroke-miterlimit="10"/></g><g transform="translate(-502,-62) scale(1,1)"><path fill="none" stroke="#000000" d="M 1516 448 L 1285 607" stroke-miterlimit="10"/></g><g transform="translate(-502,-62) scale(1,1)"><path fill="#FFFFFF" stroke="none" d="M 1290.9845727542233 597.7704339782736 L 1285 607 L 1295.7580206983873 604.7054432556438 L 1303.1220525657723 594.5263794027801"/></g><g transform="translate(-502,-62) scale(1,1)"><path fill="none" stroke="#000000" d="M 1290.9845727542233 597.7704339782736 L 1285 607 L 1295.7580206983873 604.7054432556438 L 1303.1220525657723 594.5263794027801 L 1290.9845727542233 597.7704339782736" stroke-miterlimit="10"/></g><g transform="translate(-502,-62) scale(1,1)"><path fill="none" stroke="#000000" d="M 1318 711 L 1623 675" stroke-miterlimit="10" stroke-dasharray="3"/></g><g transform="translate(-502,-62) scale(1,1)"><path fill="none" stroke="#000000" d="M 1613.4008215938147 680.3717570613557 L 1623 675 L 1612.4139500101955 672.0107617001382" stroke-miterlimit="10"/></g><g transform="translate(-502,-62) scale(1,1)"><path fill="none" stroke="#000000" d="M 1318 798 L 1407 823" stroke-miterlimit="10" stroke-dasharray="3"/></g><g transform="translate(-502,-62) scale(1,1)"><path fill="none" stroke="#000000" d="M 1396.0776070574593 824.3043513363876 L 1407 823 L 1398.354386208536 816.1990175585548" stroke-miterlimit="10"/></g><g transform="translate(-502,-62) scale(1,1)"><rect fill="#C0C0C0" stroke="none" x="999" y="327" width="207" height="119" opacity="0.2"/></g><g transform="translate(-502,-62) scale(1,1)"><rect fill="#ffffff" stroke="none" x="992" y="320" width="207" height="119"/></g><g transform="translate(-502,-62) scale(1,1)"><path fill="none" stroke="#000000" d="M 992 320 L 1199 320 L 1199 439 L 992 439 L 992 320 Z Z" stroke-miterlimit="10"/></g><g transform="translate(-502,-62) scale(1,1)"><path fill="none" stroke="#000000" d="M 992 345 L 1199 345" stroke-miterlimit="10"/></g><g transform="translate(-502,-62) scale(1,1)"><path fill="none" stroke="#000000" d="M 992 413 L 1199 413" stroke-miterlimit="10"/></g><g transform="translate(-502,-62) scale(1,1)"><g><path fill="none" stroke="none"/><text fill="#000000" stroke="none" font-family="Arial" font-size="13px" font-style="normal" font-weight="bold" text-decoration="none" x="1077.4345703125" y="339.5">Guard</text></g></g><g transform="translate(-502,-62) scale(1,1)"><g><path fill="none" stroke="none"/><text fill="#000000" stroke="none" font-family="Arial" font-size="13px" font-style="normal" font-weight="normal" text-decoration="none" x="997" y="362.5">+guardianId: Long</text></g></g><g transform="translate(-502,-62) scale(1,1)"><g><path fill="none" stroke="none"/><text fill="#000000" stroke="none" font-family="Arial" font-size="13px" font-style="normal" font-weight="normal" text-decoration="none" x="997" y="377.5">+id: Long</text></g></g><g transform="translate(-502,-62) scale(1,1)"><g><path fill="none" stroke="none"/><text fill="#000000" stroke="none" font-family="Arial" font-size="13px" font-style="normal" font-weight="normal" text-decoration="none" x="997" y="392.5">+time: Date</text></g></g><g transform="translate(-502,-62) scale(1,1)"><g><path fill="none" stroke="none"/><text fill="#000000" stroke="none" font-family="Arial" font-size="13px" font-style="normal" font-weight="normal" text-decoration="none" x="997" y="407.5">+protectedId: Long</text></g></g><g transform="translate(-502,-62) scale(1,1)"><path fill="none" stroke="#000000" d="M 1327 374 L 1200 377" stroke-miterlimit="10" stroke-dasharray="3"/></g><g transform="translate(-502,-62) scale(1,1)"><path fill="none" stroke="#000000" d="M 1210.0604309559155 372.5516599746361 L 1200 377 L 1210.2592503475453 380.96834755362863" stroke-miterlimit="10"/></g><g transform="translate(-502,-62) scale(1,1)"><path fill="none" stroke="#000000" d="M 1097 607 L 1096 440" stroke-miterlimit="10" stroke-dasharray="3"/></g><g transform="translate(-502,-62) scale(1,1)"><path fill="none" stroke="#000000" d="M 1100.2702955383888 450.1372864226487 L 1096 440 L 1091.85141096058 450.1876989051505" stroke-miterlimit="10"/></g><g transform="translate(-502,-62) scale(1,1)"><path fill="none" stroke="#000000" d="M 772 576 L 879 629" stroke-miterlimit="10"/></g><g transform="translate(-502,-62) scale(1,1)"><path fill="#FFFFFF" stroke="none" d="M 868.0248301579652 628.2613208149068 L 879 629 L 871.7617080409238 620.7170579191223 L 859.2858910061541 619.2350675077212"/></g><g transform="translate(-502,-62) scale(1,1)"><path fill="none" stroke="#000000" d="M 868.0248301579652 628.2613208149068 L 879 629 L 871.7617080409238 620.7170579191223 L 859.2858910061541 619.2350675077212 L 868.0248301579652 628.2613208149068" stroke-miterlimit="10"/></g><g transform="translate(-502,-62) scale(1,1)"><rect fill="#C0C0C0" stroke="none" x="1111" y="79" width="200" height="96" opacity="0.2"/></g><g transform="translate(-502,-62) scale(1,1)"><rect fill="#ffffff" stroke="none" x="1104" y="72" width="200" height="96"/></g><g transform="translate(-502,-62) scale(1,1)"><path fill="none" stroke="#000000" d="M 1104 72 L 1304 72 L 1304 168 L 1104 168 L 1104 72 Z Z" stroke-miterlimit="10"/></g><g transform="translate(-502,-62) scale(1,1)"><path fill="none" stroke="#000000" d="M 1104 97 L 1304 97" stroke-miterlimit="10"/></g><g transform="translate(-502,-62) scale(1,1)"><path fill="none" stroke="#000000" d="M 1104 107 L 1304 107" stroke-miterlimit="10"/></g><g transform="translate(-502,-62) scale(1,1)"><g><path fill="none" stroke="none"/><text fill="#000000" stroke="none" font-family="Arial" font-size="13px" font-style="normal" font-weight="bold" text-decoration="none" x="1171.84912109375" y="91.5">HttpServlet</text></g></g><g transform="translate(-502,-62) scale(1,1)"><path fill="none" stroke="#000000" d="M 757 431 L 1134 169" stroke-miterlimit="10"/></g><g transform="translate(-502,-62) scale(1,1)"><path fill="#FFFFFF" stroke="none" d="M 1122.1139902440314 187.5127732142166 L 1134 169 L 1112.5048144219638 173.68582937864628"/></g><g transform="translate(-502,-62) scale(1,1)"><path fill="none" stroke="#000000" d="M 1122.1139902440314 187.5127732142166 L 1134 169 L 1112.5048144219638 173.68582937864628 L 1122.1139902440314 187.5127732142166" stroke-miterlimit="10"/></g><g transform="translate(-502,-62) scale(1,1)"><path fill="none" stroke="#000000" d="M 1494 287 L 1289 169" stroke-miterlimit="10"/></g><g transform="translate(-502,-62) scale(1,1)"><path fill="#FFFFFF" stroke="none" d="M 1310.8155196743046 171.84307955218105 L 1289 169 L 1302.4155410660092 186.43626272760935"/></g><g transform="translate(-502,-62) scale(1,1)"><path fill="none" stroke="#000000" d="M 1310.8155196743046 171.84307955218105 L 1289 169 L 1302.4155410660092 186.43626272760935 L 1310.8155196743046 171.84307955218105" stroke-miterlimit="10"/></g></g></svg>